<mxfile host="app.diagrams.net" agent="Mozilla/5.0 (Macintosh; Intel Mac OS X 10_15_7) AppleWebKit/537.36 (KHTML, like Gecko) Chrome/129.0.0.0 Safari/537.36" version="24.7.16">
  <diagram name="Pagina-1" id="2ICbV-9IyiFgrKpnfkHh">
    <mxGraphModel dx="2074" dy="1070" grid="1" gridSize="10" guides="1" tooltips="1" connect="1" arrows="1" fold="1" page="1" pageScale="1" pageWidth="827" pageHeight="1169" math="0" shadow="0">
      <root>
        <mxCell id="0" />
        <mxCell id="1" parent="0" />
        <mxCell id="-4aVZCCV2KO7QRHFgVmX-3" value="" style="edgeStyle=orthogonalEdgeStyle;rounded=0;orthogonalLoop=1;jettySize=auto;html=1;" edge="1" parent="1" source="-4aVZCCV2KO7QRHFgVmX-1" target="-4aVZCCV2KO7QRHFgVmX-2">
          <mxGeometry relative="1" as="geometry" />
        </mxCell>
        <mxCell id="-4aVZCCV2KO7QRHFgVmX-1" value="&lt;font style=&quot;font-size: 21px;&quot;&gt;START&lt;/font&gt;" style="ellipse;whiteSpace=wrap;html=1;" vertex="1" parent="1">
          <mxGeometry x="354" y="50" width="120" height="80" as="geometry" />
        </mxCell>
        <mxCell id="-4aVZCCV2KO7QRHFgVmX-5" value="" style="edgeStyle=orthogonalEdgeStyle;rounded=0;orthogonalLoop=1;jettySize=auto;html=1;" edge="1" parent="1" source="-4aVZCCV2KO7QRHFgVmX-2" target="-4aVZCCV2KO7QRHFgVmX-4">
          <mxGeometry relative="1" as="geometry" />
        </mxCell>
        <mxCell id="-4aVZCCV2KO7QRHFgVmX-2" value="&lt;font style=&quot;font-size: 18px;&quot;&gt;a, b (interi positivi)&lt;/font&gt;" style="shape=parallelogram;perimeter=parallelogramPerimeter;whiteSpace=wrap;html=1;fixedSize=1;" vertex="1" parent="1">
          <mxGeometry x="316" y="170" width="196" height="60" as="geometry" />
        </mxCell>
        <mxCell id="-4aVZCCV2KO7QRHFgVmX-7" value="" style="edgeStyle=orthogonalEdgeStyle;rounded=0;orthogonalLoop=1;jettySize=auto;html=1;" edge="1" parent="1" source="-4aVZCCV2KO7QRHFgVmX-4" target="-4aVZCCV2KO7QRHFgVmX-6">
          <mxGeometry relative="1" as="geometry" />
        </mxCell>
        <mxCell id="-4aVZCCV2KO7QRHFgVmX-8" value="&lt;font style=&quot;font-size: 19px;&quot;&gt;TRUE&lt;/font&gt;" style="edgeLabel;html=1;align=center;verticalAlign=middle;resizable=0;points=[];" vertex="1" connectable="0" parent="-4aVZCCV2KO7QRHFgVmX-7">
          <mxGeometry x="-0.5417" y="2" relative="1" as="geometry">
            <mxPoint x="-19" y="-22" as="offset" />
          </mxGeometry>
        </mxCell>
        <mxCell id="-4aVZCCV2KO7QRHFgVmX-14" value="" style="edgeStyle=orthogonalEdgeStyle;rounded=0;orthogonalLoop=1;jettySize=auto;html=1;" edge="1" parent="1" source="-4aVZCCV2KO7QRHFgVmX-4" target="-4aVZCCV2KO7QRHFgVmX-13">
          <mxGeometry relative="1" as="geometry" />
        </mxCell>
        <mxCell id="-4aVZCCV2KO7QRHFgVmX-15" value="&lt;span style=&quot;font-size: 19px;&quot;&gt;FALSE&lt;/span&gt;" style="edgeLabel;html=1;align=center;verticalAlign=middle;resizable=0;points=[];" vertex="1" connectable="0" parent="-4aVZCCV2KO7QRHFgVmX-14">
          <mxGeometry x="-0.597" y="6" relative="1" as="geometry">
            <mxPoint x="4" y="-14" as="offset" />
          </mxGeometry>
        </mxCell>
        <mxCell id="-4aVZCCV2KO7QRHFgVmX-4" value="&lt;font style=&quot;font-size: 19px;&quot;&gt;b Ã¨ uguale a 0?&lt;/font&gt;" style="rhombus;whiteSpace=wrap;html=1;" vertex="1" parent="1">
          <mxGeometry x="306" y="300" width="216" height="80" as="geometry" />
        </mxCell>
        <mxCell id="-4aVZCCV2KO7QRHFgVmX-10" value="" style="edgeStyle=orthogonalEdgeStyle;rounded=0;orthogonalLoop=1;jettySize=auto;html=1;fontSize=22;" edge="1" parent="1" source="-4aVZCCV2KO7QRHFgVmX-6" target="-4aVZCCV2KO7QRHFgVmX-9">
          <mxGeometry relative="1" as="geometry" />
        </mxCell>
        <mxCell id="-4aVZCCV2KO7QRHFgVmX-6" value="&lt;font style=&quot;font-size: 22px;&quot;&gt;MCD = a&lt;/font&gt;" style="whiteSpace=wrap;html=1;fontSize=22;" vertex="1" parent="1">
          <mxGeometry x="70" y="500" width="120" height="60" as="geometry" />
        </mxCell>
        <mxCell id="-4aVZCCV2KO7QRHFgVmX-12" value="" style="edgeStyle=orthogonalEdgeStyle;rounded=0;orthogonalLoop=1;jettySize=auto;html=1;fontSize=22;" edge="1" parent="1" source="-4aVZCCV2KO7QRHFgVmX-9" target="-4aVZCCV2KO7QRHFgVmX-11">
          <mxGeometry relative="1" as="geometry">
            <Array as="points">
              <mxPoint x="130" y="960" />
            </Array>
          </mxGeometry>
        </mxCell>
        <mxCell id="-4aVZCCV2KO7QRHFgVmX-9" value="return MCD" style="shape=parallelogram;perimeter=parallelogramPerimeter;whiteSpace=wrap;html=1;fixedSize=1;fontSize=22;" vertex="1" parent="1">
          <mxGeometry x="45" y="640" width="170" height="60" as="geometry" />
        </mxCell>
        <mxCell id="-4aVZCCV2KO7QRHFgVmX-11" value="STOP" style="ellipse;whiteSpace=wrap;html=1;fontSize=22;" vertex="1" parent="1">
          <mxGeometry x="330" y="920" width="130" height="80" as="geometry" />
        </mxCell>
        <mxCell id="-4aVZCCV2KO7QRHFgVmX-18" style="edgeStyle=orthogonalEdgeStyle;rounded=0;orthogonalLoop=1;jettySize=auto;html=1;exitX=1;exitY=0.5;exitDx=0;exitDy=0;" edge="1" parent="1" source="-4aVZCCV2KO7QRHFgVmX-21">
          <mxGeometry relative="1" as="geometry">
            <mxPoint x="430" y="280" as="targetPoint" />
            <Array as="points">
              <mxPoint x="730" y="800" />
              <mxPoint x="730" y="280" />
            </Array>
          </mxGeometry>
        </mxCell>
        <mxCell id="-4aVZCCV2KO7QRHFgVmX-20" value="" style="edgeStyle=orthogonalEdgeStyle;rounded=0;orthogonalLoop=1;jettySize=auto;html=1;" edge="1" parent="1" source="-4aVZCCV2KO7QRHFgVmX-13" target="-4aVZCCV2KO7QRHFgVmX-19">
          <mxGeometry relative="1" as="geometry" />
        </mxCell>
        <mxCell id="-4aVZCCV2KO7QRHFgVmX-13" value="r = a % b" style="whiteSpace=wrap;html=1;fontSize=22;" vertex="1" parent="1">
          <mxGeometry x="580" y="490" width="120" height="60" as="geometry" />
        </mxCell>
        <mxCell id="-4aVZCCV2KO7QRHFgVmX-22" value="" style="edgeStyle=orthogonalEdgeStyle;rounded=0;orthogonalLoop=1;jettySize=auto;html=1;" edge="1" parent="1" source="-4aVZCCV2KO7QRHFgVmX-19" target="-4aVZCCV2KO7QRHFgVmX-21">
          <mxGeometry relative="1" as="geometry" />
        </mxCell>
        <mxCell id="-4aVZCCV2KO7QRHFgVmX-19" value="a = b" style="whiteSpace=wrap;html=1;fontSize=22;" vertex="1" parent="1">
          <mxGeometry x="580" y="630" width="120" height="60" as="geometry" />
        </mxCell>
        <mxCell id="-4aVZCCV2KO7QRHFgVmX-21" value="b = r" style="whiteSpace=wrap;html=1;fontSize=22;" vertex="1" parent="1">
          <mxGeometry x="580" y="770" width="120" height="60" as="geometry" />
        </mxCell>
      </root>
    </mxGraphModel>
  </diagram>
</mxfile>
